<svg width="348" height="276" viewBox="0 0 348 276" fill="none" xmlns="http://www.w3.org/2000/svg">
<path d="M0 233.412L43.3807 233.209L86.753 233.134L173.514 232.99L260.267 233.134L303.648 233.209L347.029 233.412L303.648 233.623L260.267 233.69L173.514 233.833L86.753 233.69L43.3807 233.614L0 233.412Z" fill="#263238"/>
<path d="M144.113 88.3373C139.054 85.9764 124.409 86.7521 118.228 92.8735C112.048 98.9949 109.864 110.639 111.989 112.266C114.114 113.894 124.493 115.302 132.343 112.991C140.193 110.681 146.618 89.5093 144.113 88.3373Z" fill="#263238"/>
<path d="M144.122 88.3794C144.307 88.3794 144.392 88.0843 144.189 88.0338C139.535 86.8786 134.164 87.3508 129.417 87.6459C125.581 87.8904 121.609 88.3036 118.161 90.1079C116.505 90.9506 115.051 92.1422 113.9 93.6007C112.748 95.0592 111.927 96.7499 111.492 98.5564C110.429 102.654 109.906 107.781 111.129 111.887C111.129 112.005 111.373 112.022 111.365 111.887C110.935 103.607 111.163 93.6576 120.092 90.0573C127.672 87.0051 136.213 88.3457 144.122 88.3794Z" fill="#263238"/>
<path d="M113.212 110.428C108.397 109.99 94.2656 116.204 90.2522 124.661C86.2387 133.118 90.5557 147.865 92.6383 149.323C94.721 150.782 106.972 144.543 111.711 139.02C114.889 135.335 114.19 130.057 114.24 124.973C114.324 117.477 113.962 110.496 113.212 110.428Z" fill="#263238"/>
<path d="M114.763 138.522C118.136 129.762 115.016 119.644 113.734 110.765C113.734 110.673 113.566 110.681 113.566 110.765C113.566 119.003 116.711 127.106 115.024 135.352C114.021 140.251 111.264 144.627 106.593 146.76C102.537 148.581 97.8997 148.801 93.5405 149.34C93.2538 149.34 93.3466 149.804 93.6248 149.779C102.25 148.944 111.255 147.569 114.763 138.522Z" fill="#263238"/>
<path d="M112.014 111.044C112.276 110.976 112.2 110.572 111.938 110.631C104.586 112.317 95.5557 115.133 90.4967 121.086C85.0246 127.536 87.1999 136.035 89.1729 143.387C89.1729 143.48 89.3416 143.455 89.3163 143.387C87.4192 135.942 85.6738 126.853 91.635 120.706C96.7867 115.42 105.058 112.73 112.014 111.044Z" fill="#263238"/>
<path d="M93.2201 149.205C95.7496 151.735 98.5995 158.362 97.6973 164.812C96.1543 175.858 100.758 175.031 111.348 181.414C120.294 186.802 118.937 198.277 112.115 202.029C112.115 202.029 117.174 196.287 111.702 190.967C105.126 184.601 84.721 187.215 79.2658 173.404C72.2253 155.529 93.2201 149.205 93.2201 149.205Z" fill="#263238"/>
<path d="M95.8255 155.343C95.7411 155.166 96.0531 155.015 96.1459 155.2C97.0408 156.931 97.6122 158.812 97.8322 160.748C98.1189 163.278 97.4106 165.697 97.5202 168.218C97.8069 174.627 104.822 176.608 109.746 178.539C116.348 181.136 120.496 186.97 118.684 194.213C118.678 194.236 118.664 194.255 118.644 194.267C118.624 194.279 118.601 194.282 118.578 194.276C118.556 194.271 118.537 194.257 118.525 194.237C118.513 194.217 118.509 194.193 118.515 194.171C119.054 191.932 118.969 189.588 118.269 187.393C117.568 185.199 116.28 183.239 114.544 181.726C111.12 178.817 106.39 178.303 102.596 176.035C100.008 174.475 97.5877 172.409 97.1408 169.289C97.0438 167.551 97.1286 165.808 97.3937 164.087C97.6225 161.087 97.0827 158.077 95.8255 155.343Z" fill="#263238"/>
<path d="M91.0449 149.922C91.1292 149.922 91.1882 150.015 91.1123 150.048C86.1039 152.628 80.8595 155.158 78.0264 160.335C74.9826 165.908 76.1799 172.822 79.7128 177.881C83.6841 183.539 89.8982 183.37 96.0954 184.062C100.581 184.567 105.05 185.411 108.743 188.159C108.852 188.244 108.743 188.429 108.599 188.362C102.402 184.719 95.657 184.787 88.7599 183.792C83.1276 182.949 79.4851 179.795 77.3435 174.517C72.6386 162.982 80.5896 153.952 91.0449 149.922Z" fill="#263238"/>
<path d="M141.095 82.5364C140.032 80.3189 136.609 82.022 137.68 84.2227C138.751 86.4234 142.166 84.7455 141.095 82.5364Z" fill="#E14483"/>
<path d="M141.845 86.0018C140.774 83.7927 137.351 85.4959 138.422 87.6881C139.493 89.8803 142.916 88.2277 141.845 86.0018Z" fill="#E14483"/>
<path d="M143.161 89.3322C142.09 87.1147 138.667 88.8179 139.737 91.0186C140.808 93.2192 144.265 91.5582 143.161 89.3322Z" fill="#E14483"/>
<path d="M144.923 92.3676C143.852 90.1501 140.429 91.8533 141.5 94.0539C142.57 96.2546 145.985 94.5936 144.923 92.3676Z" fill="#E14483"/>
<path d="M147.191 95.1248C146.12 92.9072 142.705 94.6104 143.768 96.8111C144.83 99.0117 148.262 97.3423 147.191 95.1248Z" fill="#E14483"/>
<path d="M149.822 97.3423C148.751 95.1248 145.328 96.828 146.398 99.0286C147.469 101.229 150.892 99.5598 149.822 97.3423Z" fill="#E14483"/>
<path d="M158.751 127.646C173.666 145.352 186.069 167.957 192.671 173.412C196.128 176.271 246.102 180.385 251.777 181.473C260.428 183.159 247.561 224.323 241.709 222.721C237.915 221.683 181.398 217.215 170.766 205.326C162.587 196.169 149.518 156.608 145.994 139.197C142.081 119.855 152.798 120.58 158.751 127.646Z" fill="#C95F50"/>
<path d="M237.865 179.66C255.065 176.136 274.028 174.761 290.739 182.316C292.618 183.104 294.175 184.503 295.158 186.287C302.746 189.542 303.446 194.087 303.446 194.087C309.55 199.264 309.66 204.011 309.66 204.011C309.66 204.011 318.48 207.931 316.996 213.657C315.351 220.081 303.286 213.319 294.382 213.657C273.969 214.449 245.175 221.245 239.315 222.088L237.865 179.66Z" fill="#C95F50"/>
<path d="M272.409 199.458C278.421 199.348 284.323 199.078 290.318 199.787C296.894 200.554 303.1 202.4 309.458 204.12C309.497 204.131 309.539 204.127 309.576 204.107C309.612 204.088 309.639 204.056 309.652 204.017C309.665 203.978 309.663 203.935 309.645 203.898C309.628 203.861 309.597 203.832 309.559 203.817C298.547 198.884 284.264 197.324 272.401 199.188C272.114 199.23 272.105 199.466 272.409 199.458Z" fill="#263238"/>
<path d="M270.141 187.207C276.001 187.426 286.288 187.873 303.378 194.264C303.429 194.264 303.488 194.196 303.429 194.171C292.881 188.539 281.996 186.372 270.158 186.928C269.787 186.945 269.753 187.198 270.141 187.207Z" fill="#263238"/>
<path d="M269.053 180.605C278.994 181.347 285.166 183.075 295.107 186.321C295.166 186.321 295.217 186.245 295.149 186.22C284.239 181.347 279.728 180.815 269.011 180.259C268.657 180.242 268.665 180.571 269.053 180.605Z" fill="#263238"/>
<path d="M267.291 213.092C264.762 214.373 265.386 215.722 270.369 216.743C275.352 217.763 295.933 217.586 295.394 224.769C294.854 231.953 265.799 231.801 257.637 229.466C249.475 227.13 237.081 220.486 237.081 220.486C242.738 219.382 256.212 215.393 267.291 213.092Z" fill="#C95F50"/>
<path d="M232.873 176.127L226.027 224.39C226.027 224.39 174.695 215.958 166.255 206.388C157.815 196.819 149.063 158.564 144.847 139.315C140.631 120.065 151.306 113.944 163.228 129.897C175.15 145.849 188.776 170.192 191.895 171.608C195.015 173.025 232.873 176.127 232.873 176.127Z" fill="#EBEBEB"/>
<path d="M238.885 175.613C238.767 175.343 224.189 172.906 224.189 172.906C224.189 172.906 211.204 196.186 211.238 198.969C211.271 201.751 211.086 222.889 211.305 223.151C211.524 223.412 229.054 227.889 229.408 227.366C229.762 226.844 230.799 204.095 230.85 202.35C230.9 200.604 238.885 175.613 238.885 175.613Z" fill="#E5602D"/>
<path d="M212.544 221.844C196.718 218.64 171.896 212.746 166.255 206.355C157.823 196.81 149.071 158.564 144.864 139.315C142.722 129.501 144.442 123.101 148.236 121.305C157.208 135.015 193.885 191.102 212.544 221.844Z" fill="#C7C7C7"/>
<path d="M165.926 233.412L164.282 203.235C164.282 203.235 180.192 187.881 177.916 172.881C176.769 165.293 164.855 133.059 155.85 121.448C147.419 110.563 129.451 114.357 121.888 118.767C92.7816 135.74 60.9438 177.333 41.863 233.437L165.926 233.412Z" fill="#EBEBEB"/>
<path d="M127.933 119.062C128.128 121.191 128.628 123.281 129.417 125.268C130.181 127.254 131.168 129.146 132.36 130.909C134.761 134.402 137.789 137.421 141.289 139.812C144.802 142.179 148.605 144.083 152.604 145.478L154.113 145.993L154.864 146.246H154.906C154.906 146.246 154.906 146.246 155.142 146.355C155.238 146.424 155.321 146.51 155.386 146.608C155.441 146.683 155.489 146.762 155.53 146.844L155.741 147.232C156.238 148.236 156.651 149.222 157.056 150.234C157.899 152.241 158.59 154.264 159.273 156.313C160.642 160.411 161.768 164.587 162.646 168.817C163.548 173.061 164.05 177.38 164.147 181.718C164.298 186.124 163.623 190.519 162.157 194.677C161.383 196.773 160.259 198.723 158.835 200.444C157.393 202.176 155.626 203.609 153.633 204.66L154.021 204.104C153.65 206.557 153.279 209.011 152.865 211.456L151.66 218.8C151.272 221.245 150.817 223.69 150.403 226.135C149.99 228.581 149.56 231.017 149.063 233.454C149.29 230.984 149.569 228.521 149.838 226.051C150.108 223.581 150.378 221.119 150.682 218.657L151.584 211.27C151.87 208.808 152.199 206.355 152.545 203.901L152.596 203.53L152.933 203.345C154.743 202.384 156.347 201.078 157.655 199.5C158.954 197.899 159.978 196.092 160.682 194.154C162.032 190.182 162.632 185.993 162.452 181.802C162.258 173.37 160.386 164.939 157.806 156.853C157.16 154.823 156.449 152.82 155.673 150.841C155.285 149.854 154.872 148.868 154.425 147.949L154.257 147.62L154.189 147.51C154.189 147.51 154.139 147.51 154.307 147.62C154.476 147.73 154.459 147.679 154.451 147.688H154.4L153.633 147.418L152.107 146.878C148.024 145.344 144.164 143.272 140.631 140.715C137.09 138.177 134.082 134.968 131.778 131.271C130.645 129.416 129.731 127.435 129.055 125.369C128.358 123.337 127.979 121.21 127.933 119.062Z" fill="#263238"/>
<path d="M127.377 147.519C125.538 154.719 123.608 161.895 121.668 169.062L115.766 190.545L109.653 211.979L106.534 222.67L103.321 233.344L106.129 222.56L109.029 211.802L114.932 190.318L121.044 168.893C123.119 161.794 125.201 154.627 127.377 147.519Z" fill="#263238"/>
<path d="M132.503 159.264C132.503 159.778 132.351 160.28 132.065 160.707C131.78 161.134 131.374 161.467 130.9 161.663C130.425 161.86 129.903 161.911 129.399 161.811C128.896 161.711 128.433 161.464 128.07 161.1C127.707 160.737 127.459 160.275 127.359 159.771C127.259 159.267 127.31 158.745 127.507 158.27C127.703 157.796 128.036 157.39 128.463 157.105C128.89 156.82 129.392 156.667 129.906 156.667C130.595 156.667 131.255 156.941 131.742 157.428C132.229 157.915 132.503 158.575 132.503 159.264Z" fill="#263238"/>
<path d="M157.309 160.596C157.309 161.11 157.157 161.612 156.871 162.039C156.586 162.466 156.18 162.799 155.706 162.996C155.231 163.192 154.709 163.244 154.205 163.143C153.702 163.043 153.239 162.796 152.876 162.433C152.512 162.069 152.265 161.607 152.165 161.103C152.065 160.599 152.116 160.077 152.313 159.603C152.509 159.128 152.842 158.722 153.269 158.437C153.696 158.152 154.198 157.999 154.712 157.999C155.401 157.999 156.061 158.273 156.548 158.76C157.035 159.247 157.309 159.908 157.309 160.596Z" fill="#263238"/>
<path d="M124.78 182.013C126.214 182.013 127.377 180.85 127.377 179.416C127.377 177.981 126.214 176.819 124.78 176.819C123.345 176.819 122.183 177.981 122.183 179.416C122.183 180.85 123.345 182.013 124.78 182.013Z" fill="#263238"/>
<path d="M121.837 199.955C121.837 200.469 121.685 200.971 121.399 201.398C121.114 201.825 120.708 202.158 120.234 202.354C119.759 202.551 119.237 202.602 118.734 202.502C118.23 202.402 117.767 202.155 117.404 201.791C117.041 201.428 116.793 200.966 116.693 200.462C116.593 199.958 116.644 199.436 116.841 198.961C117.037 198.487 117.37 198.081 117.797 197.796C118.224 197.511 118.727 197.358 119.24 197.358C119.929 197.358 120.589 197.632 121.076 198.119C121.563 198.606 121.837 199.266 121.837 199.955Z" fill="#263238"/>
<path d="M113.54 226.203C114.975 226.203 116.137 225.04 116.137 223.606C116.137 222.172 114.975 221.009 113.54 221.009C112.106 221.009 110.943 222.172 110.943 223.606C110.943 225.04 112.106 226.203 113.54 226.203Z" fill="#263238"/>
<path d="M153.177 183.387C154.612 183.387 155.774 182.224 155.774 180.79C155.774 179.356 154.612 178.193 153.177 178.193C151.743 178.193 150.58 179.356 150.58 180.79C150.58 182.224 151.743 183.387 153.177 183.387Z" fill="#263238"/>
<path d="M144.771 227.468C146.205 227.468 147.368 226.305 147.368 224.871C147.368 223.436 146.205 222.274 144.771 222.274C143.337 222.274 142.174 223.436 142.174 224.871C142.174 226.305 143.337 227.468 144.771 227.468Z" fill="#263238"/>
<path d="M147.984 205.149C149.418 205.149 150.58 203.986 150.58 202.552C150.58 201.118 149.418 199.955 147.984 199.955C146.549 199.955 145.387 201.118 145.387 202.552C145.387 203.986 146.549 205.149 147.984 205.149Z" fill="#263238"/>
<path d="M177.435 170.993C176.347 166.998 174.888 163.114 173.076 159.391C172.806 158.784 172.528 158.185 172.233 157.586C172.21 156.557 172.071 155.533 171.82 154.534C171.561 153.427 171.199 152.345 170.74 151.305C170.74 151.246 170.614 151.305 170.631 151.305C170.943 152.367 171.229 153.446 171.474 154.534C171.617 155.234 171.719 155.925 171.828 156.625C171.246 155.335 170.673 154.045 170.074 152.755C169.552 151.642 169.037 150.537 168.523 149.424C168.009 148.311 167.444 147.139 166.938 145.993C166.938 145.942 166.82 145.993 166.845 145.993C167.688 147.966 168.413 149.972 169.189 151.962C169.965 153.952 170.724 155.883 171.516 157.864C173.175 161.591 174.63 165.405 175.875 169.289C176.972 173.11 177.105 177.142 176.263 181.026C175.374 184.817 173.918 188.453 171.946 191.81C170.842 193.766 169.56 195.613 168.321 197.502C167.081 199.39 165.715 201.169 164.543 203.075C164.538 203.09 164.538 203.107 164.543 203.122C164.548 203.138 164.558 203.151 164.571 203.161C164.584 203.17 164.6 203.175 164.616 203.175C164.633 203.174 164.648 203.169 164.661 203.159C166.103 201.7 167.368 200.09 168.683 198.53C169.97 196.968 171.169 195.335 172.275 193.64C174.543 190.314 176.252 186.64 177.334 182.763C178.341 178.908 178.376 174.864 177.435 170.993Z" fill="#263238"/>
<path d="M115.842 118.792C95.2859 126.381 28.3556 162.367 25.2949 180.79C23.0184 194.483 35.8598 203.311 50.0165 202.19C62.3351 201.211 107.115 152.983 119.51 139.374C131.356 126.381 136.036 111.398 115.842 118.792Z" fill="#C95F50"/>
<path d="M115.842 118.792C95.2859 126.381 28.3556 162.367 25.2949 180.79C23.0184 194.483 35.8598 203.311 50.0165 202.19C62.3351 201.211 107.115 152.983 119.51 139.374C131.356 126.381 136.036 111.398 115.842 118.792Z" fill="#EBEBEB"/>
<path d="M116.584 143.379C116.66 143.278 116.534 143.143 116.441 143.244C113.279 146.667 110.083 150.065 106.829 153.404C103.574 156.743 100.37 160.149 97.0987 163.48C90.5895 170.124 83.8892 176.569 76.9977 182.814C75.0669 184.567 73.1108 186.279 71.163 188.008C69.2153 189.736 67.158 191.431 65.2609 193.227C65.2019 193.277 65.2609 193.37 65.3452 193.328C67.2592 191.996 69.0889 190.512 70.9185 189.053C72.7482 187.594 74.5188 186.144 76.2895 184.643C79.8308 181.642 83.3383 178.606 86.7531 175.461C90.1679 172.316 93.608 169.028 96.9385 165.706C99.6451 163.016 102.309 160.276 104.881 157.451C105.353 157.106 105.825 156.768 106.289 156.414C107.225 155.689 108.153 154.947 109.088 154.205C110.91 152.763 112.621 151.187 114.409 149.703C114.518 149.61 114.358 149.416 114.249 149.5C112.419 150.942 110.53 152.3 108.734 153.775L106.492 155.647C109.974 151.676 113.338 147.544 116.584 143.379Z" fill="#263238"/>
<path d="M155.631 123.388C155.631 123.388 150.968 139.003 148.085 138.278C139.206 136.043 133.818 120.833 133.953 118.784C133.953 118.261 138.886 106.583 142.722 97.5109C145.184 91.6762 147.208 86.9292 147.208 86.9292L164.729 107.266L156.238 122.308L155.631 123.388Z" fill="#C95F50"/>
<path d="M164.729 107.266L156.238 122.308C152.374 119.354 149.176 115.619 146.852 111.346C144.528 107.074 143.129 102.36 142.747 97.5109C145.209 91.6762 147.233 86.9292 147.233 86.9292L149.484 89.3744L164.729 107.266Z" fill="#263238"/>
<path d="M195.116 94.6779C183.632 122.73 165.53 119.02 159.484 116.533C153.995 114.281 135.589 105.909 144.113 76.8113C152.638 47.7137 169.315 44.1893 182.148 48.6834C194.981 53.1774 206.609 66.6174 195.116 94.6779Z" fill="#C95F50"/>
<path d="M191.693 88.2867C191.107 87.8887 190.544 87.458 190.007 86.9967C189.366 86.6182 188.865 86.041 188.582 85.3525C188.536 85.1182 188.569 84.8752 188.675 84.6616C188.782 84.448 188.957 84.2758 189.172 84.1721C189.626 84.03 190.11 84.0113 190.574 84.118C191.038 84.2247 191.465 84.4529 191.811 84.7792C192.613 85.3341 193.18 86.1661 193.405 87.1147C193.439 87.3294 193.412 87.5495 193.326 87.7494C193.241 87.9492 193.1 88.1206 192.92 88.2434C192.741 88.3663 192.53 88.4356 192.313 88.4433C192.096 88.4509 191.881 88.3966 191.693 88.2867Z" fill="#263238"/>
<path d="M172.46 81.8703C173.02 82.2854 173.603 82.6683 174.206 83.017C174.765 83.5138 175.474 83.8104 176.221 83.8601C176.457 83.8302 176.675 83.7229 176.843 83.555C177.011 83.3871 177.119 83.1682 177.148 82.9326C177.141 82.4559 177.007 81.9897 176.759 81.5821C176.512 81.1745 176.16 80.8403 175.74 80.6139C174.958 80.031 173.988 79.7578 173.017 79.8467C172.797 79.8792 172.591 79.975 172.425 80.1224C172.258 80.2698 172.138 80.4625 172.079 80.677C172.02 80.8915 172.025 81.1185 172.092 81.3303C172.16 81.5422 172.288 81.7298 172.46 81.8703Z" fill="#263238"/>
<path d="M174.299 88.5059C174.299 88.43 174.113 88.5059 174.079 88.6071C173.236 90.5042 172.022 92.5447 170.041 92.376C169.982 92.376 169.94 92.4688 170.041 92.4941C172.208 93.1602 173.835 90.4368 174.299 88.5059Z" fill="#263238"/>
<path d="M173.514 85.7741C170.614 84.1468 167.57 90.0742 170.26 91.5835C172.95 93.0928 175.976 87.14 173.514 85.7741Z" fill="#263238"/>
<path d="M172.216 85.4959C171.525 85.5633 170.715 85.8921 170.058 85.6392C169.4 85.3862 169.071 84.4335 168.911 83.5987C168.911 83.506 168.81 83.5313 168.767 83.5987C168.169 84.7202 168.009 86.1282 169.138 86.9039C170.268 87.6796 171.482 87.0388 172.359 86.0608C172.52 85.909 172.494 85.4621 172.216 85.4959Z" fill="#263238"/>
<path d="M184.762 93.2951C184.813 93.2361 184.855 93.4553 184.821 93.5312C183.801 95.3271 182.941 97.5615 184.282 99.0286C184.324 99.0792 184.282 99.1635 184.214 99.1298C182.342 97.7891 183.514 94.8381 184.762 93.2951Z" fill="#263238"/>
<path d="M187.393 92.2412C190.454 93.5565 187.595 99.5767 184.762 98.3541C181.929 97.1315 184.83 91.1366 187.393 92.2412Z" fill="#263238"/>
<path d="M188.464 93.2276C188.784 93.7757 188.978 94.5767 189.535 94.914C190.091 95.2512 190.968 94.8465 191.685 94.4249C191.761 94.3743 191.777 94.4249 191.744 94.5345C191.229 95.6981 190.285 96.7183 189.071 96.4148C187.857 96.1113 187.696 94.7959 187.966 93.5227C188.017 93.2614 188.329 93.0084 188.464 93.2276Z" fill="#263238"/>
<path d="M166.499 102.772C166.685 103.438 166.786 104.256 167.402 104.686C168.078 105.049 168.821 105.27 169.585 105.335C169.603 105.335 169.62 105.343 169.633 105.355C169.646 105.368 169.653 105.385 169.653 105.403C169.653 105.421 169.646 105.438 169.633 105.451C169.62 105.463 169.603 105.47 169.585 105.47C169.129 105.677 168.625 105.756 168.127 105.698C167.63 105.64 167.157 105.448 166.761 105.142C166.449 104.839 166.234 104.451 166.144 104.026C166.054 103.601 166.092 103.158 166.255 102.755C166.314 102.637 166.474 102.679 166.499 102.772Z" fill="#263238"/>
<path d="M177.553 99.9476C177.553 99.9476 176.558 102.899 175.909 104.163C175.85 104.281 175.504 104.163 175.066 103.986C175.066 103.986 175.066 103.986 175.015 103.986C173.797 103.634 172.699 102.952 171.842 102.017C170.985 101.081 170.403 99.9277 170.159 98.6829C170.155 98.6475 170.163 98.6118 170.183 98.5822C170.203 98.5525 170.232 98.5308 170.267 98.5207C170.301 98.5107 170.337 98.513 170.37 98.5272C170.403 98.5414 170.429 98.5667 170.445 98.5986C171.533 100.564 173.232 102.121 175.285 103.034C175.555 102.722 176.82 97.924 177.03 97.9746C177.997 98.5678 178.878 99.2881 179.653 100.116C181.904 94.0286 183.16 87.6375 185.487 81.6173C185.506 81.5744 185.539 81.5393 185.581 81.5179C185.622 81.4966 185.67 81.4904 185.716 81.5003C185.762 81.5103 185.802 81.5358 185.831 81.5725C185.861 81.6092 185.876 81.6548 185.875 81.7016C185.032 88.4975 182.595 95.5548 180.437 101.895C180.15 102.772 177.958 100.428 177.553 99.9476Z" fill="#263238"/>
<path d="M174.695 103.101C173.552 103.769 172.258 104.132 170.934 104.155C170.215 104.143 169.516 103.907 168.936 103.48C167.671 102.536 168.16 101.229 168.869 100.226C169.252 99.6955 169.697 99.2117 170.192 98.7841C171.193 100.667 172.771 102.18 174.695 103.101Z" fill="#263238"/>
<path d="M170.934 104.155C170.215 104.143 169.516 103.907 168.936 103.48C167.671 102.536 168.16 101.229 168.869 100.226C170.319 100.993 171.398 102.629 170.934 104.155Z" fill="#FF9CBD"/>
<path d="M190.546 59.3072C190.546 59.3072 189.61 63.9699 186.718 66.2633C180.816 70.9681 174.172 65.7237 170.454 66.9125C166.963 68.0339 165.488 73.1519 162.225 74.383C157.705 76.0693 154.257 72.8737 152.731 74.7624C151.204 76.6511 146.483 82.7134 143.355 82.2412C140.226 81.7691 149.813 30.7577 184.492 49.4844C184.492 49.4844 190.319 49.8807 195.993 57.3511C202.258 65.6056 199.18 81.0439 199.18 81.0439C199.18 81.0439 199.096 80.7657 198.405 79.1131C197.435 76.7691 197.46 75.0491 196.718 73.4639C195.504 70.9344 194.138 71.0272 192.823 68.5314C190.791 64.7372 190.546 59.3072 190.546 59.3072Z" fill="#263238"/>
<path d="M190.968 57.0813C190.655 59.1039 190.112 61.0841 189.349 62.9834C188.705 64.8841 187.557 66.5743 186.027 67.8738C184.36 68.9268 182.368 69.3402 180.42 69.0373C178.43 68.835 176.491 68.1014 174.332 67.9412C173.214 67.848 172.091 68.0638 171.086 68.5651C170.155 69.1336 169.349 69.8851 168.717 70.7742C167.452 72.4015 166.187 74.0035 164.358 74.7034C163.438 75.0678 162.45 75.2272 161.463 75.1704C160.476 75.1136 159.513 74.842 158.641 74.3745C156.854 73.5314 155.134 72.039 153.009 71.9715C155.117 72.216 156.626 73.7422 158.422 74.7961C159.348 75.3424 160.383 75.6798 161.453 75.7847C162.524 75.8895 163.604 75.7593 164.619 75.4032C166.744 74.7202 168.144 72.8737 169.4 71.3307C169.974 70.5468 170.696 69.8824 171.525 69.3746C172.384 68.9792 173.332 68.8192 174.273 68.9108C176.229 69.0204 178.211 69.754 180.327 69.9226C181.394 70.0364 182.472 69.9852 183.523 69.7709C184.606 69.5988 185.626 69.1485 186.482 68.464C188.058 67.0294 189.207 65.1886 189.804 63.1436C190.424 61.1744 190.815 59.1401 190.968 57.0813Z" fill="#263238"/>
<path d="M190.858 59.029C190.376 60.8924 190.149 62.8127 190.184 64.7372C190.159 66.7378 190.729 68.7008 191.819 70.3779C192.41 71.1534 193.074 71.8706 193.801 72.5196C194.428 73.1252 194.874 73.8928 195.091 74.7371C195.164 75.6994 195.337 76.6516 195.605 77.5785C195.948 78.4916 196.497 79.3137 197.207 79.9816C196.665 79.2203 196.276 78.3613 196.061 77.4521C195.897 76.5254 195.82 75.5853 195.833 74.6443C195.676 73.6128 195.198 72.657 194.467 71.9125C193.792 71.2765 193.174 70.5824 192.621 69.8383C191.628 68.2994 191.047 66.5312 190.934 64.7035C190.782 62.8158 190.756 60.92 190.858 59.029Z" fill="#263238"/>
<path d="M147.688 80.791C147.688 80.791 146.137 69.3493 141.238 69.4842C136.339 69.6191 134.493 84.0962 138.11 88.0338C138.539 88.5765 139.074 89.0265 139.682 89.3568C140.29 89.6871 140.958 89.8907 141.647 89.9553C142.336 90.0199 143.03 89.9442 143.689 89.7328C144.348 89.5214 144.957 89.1786 145.479 88.7251L147.688 80.791Z" fill="#C95F50"/>
<path d="M140.808 73.6494C140.741 73.6073 140.673 73.7 140.724 73.759C143.211 76.6427 143.371 80.4116 142.975 84.0288C142.638 82.3424 141.693 81.0946 139.56 81.4065C139.451 81.4065 139.459 81.592 139.56 81.6173C140.198 81.7238 140.787 82.0235 141.249 82.4759C141.71 82.9283 142.021 83.5116 142.14 84.1468C142.323 85.2242 142.388 86.3183 142.334 87.4098C142.334 87.764 142.924 87.8736 142.984 87.4942C142.984 87.4942 142.984 87.4351 142.984 87.4098C145.134 83.4723 144.906 76.2632 140.808 73.6494Z" fill="#263238"/>
<path d="M141.255 88.1771C141.155 88.3626 141.003 88.5142 140.816 88.6127C140.63 88.7111 140.419 88.7521 140.209 88.7302C140 88.7084 139.802 88.6248 139.64 88.49C139.478 88.3552 139.36 88.1754 139.3 87.9733C139.241 87.7713 139.243 87.5561 139.306 87.3552C139.369 87.1542 139.491 86.9766 139.655 86.8448C139.819 86.713 140.019 86.6331 140.229 86.6151C140.439 86.5971 140.649 86.6419 140.833 86.7437C140.956 86.8099 141.063 86.8996 141.151 87.0075C141.238 87.1155 141.303 87.2396 141.342 87.3728C141.381 87.506 141.394 87.6456 141.379 87.7837C141.364 87.9217 141.322 88.0554 141.255 88.1771Z" fill="white"/>
<path d="M139.535 85.1417C139.448 85.2962 139.304 85.4103 139.133 85.4592C138.963 85.5081 138.78 85.4879 138.624 85.4031C138.51 85.3388 138.417 85.242 138.357 85.1249C138.297 85.0078 138.274 84.8757 138.289 84.7452C138.304 84.6146 138.358 84.4915 138.443 84.3913C138.528 84.2911 138.64 84.2183 138.767 84.182C138.893 84.1458 139.027 84.1477 139.153 84.1876C139.278 84.2274 139.388 84.3034 139.471 84.406C139.553 84.5086 139.603 84.6332 139.614 84.7641C139.626 84.895 139.598 85.0264 139.535 85.1417Z" fill="white"/>
<path d="M143.068 63.3038C142.815 62.9581 135.007 48.2196 133.835 46.8115C132.663 45.4035 121.862 45.1252 120.64 40.218C119.417 35.3108 120.378 25.9854 126.542 22.7561C132.705 19.5268 139.063 18.9197 139.56 18.3632C140.058 17.8068 139.999 3.81026 148.886 0.521925C157.773 -2.76641 167.435 10.5556 168.059 10.6399C168.683 10.7242 173.177 3.50672 179.282 4.02104C185.386 4.53537 189.729 14.8304 191.28 14.9822C192.831 15.1339 198.194 12.9586 203.717 18.6078C209.239 24.2569 204.231 36.4659 202.283 37.7644C200.335 39.0629 199.408 55.1251 199.408 55.1251L143.068 63.3038Z" fill="#EBEBEB"/>
<path d="M149.4 57.8907C148.859 57.2636 148.431 56.5476 148.135 55.7744C147.773 55.0071 147.402 54.2482 147.005 53.4978C146.199 51.998 145.277 50.5632 144.248 49.2061C143.456 48.1185 142.486 46.9127 141.129 46.5417C140.644 46.4426 140.145 46.4407 139.66 46.5362C139.175 46.6318 138.714 46.8228 138.304 47.0982C138.079 47.3665 137.871 47.648 137.68 47.9414C137.613 48.0173 137.756 48.1269 137.807 48.0341C138.007 47.6463 138.343 47.3461 138.751 47.191C139.084 47.0789 139.429 47.0081 139.78 46.9802C140.524 46.9505 141.254 47.1967 141.828 47.6716C142.886 48.6382 143.77 49.7789 144.442 51.0442C145.235 52.2752 146.033 53.5063 146.837 54.7373C147.554 55.8587 148.135 57.3174 149.257 58.1099C149.349 58.0846 149.484 57.9835 149.4 57.8907Z" fill="#C7C7C7"/>
<path d="M152.781 58.0846C151.23 54.9649 149.67 51.8368 148.093 48.7255C146.379 45.6268 145.024 42.3425 144.054 38.9364C144.054 38.8352 143.877 38.8605 143.903 38.9364C144.59 42.42 145.671 45.8144 147.123 49.0543C148.71 52.2449 150.548 55.3041 152.621 58.2027C152.637 58.2239 152.66 58.2381 152.686 58.242C152.712 58.246 152.739 58.2394 152.76 58.2237C152.781 58.2081 152.795 58.1846 152.799 58.1585C152.803 58.1325 152.797 58.1059 152.781 58.0846Z" fill="#C7C7C7"/>
<path d="M161.778 53.8688C160.884 51.0189 159.695 48.2449 158.54 45.4878C157.532 43.0564 156.208 40.7686 154.602 38.6835C154.543 38.6076 154.425 38.6835 154.484 38.7847C155.977 41.0106 156.744 43.616 157.747 46.0864C158.835 48.7846 159.923 51.5164 161.263 54.1049C161.301 54.1614 161.358 54.2026 161.424 54.221C161.489 54.2395 161.559 54.234 161.621 54.2056C161.683 54.1772 161.732 54.1277 161.761 54.066C161.79 54.0043 161.796 53.9344 161.778 53.8688Z" fill="#C7C7C7"/>
<path d="M177.815 30.4879C177.487 30.179 177.095 29.9463 176.667 29.8063C176.239 29.6664 175.785 29.6226 175.338 29.6782C174.891 29.7337 174.462 29.8873 174.081 30.1278C173.7 30.3683 173.377 30.69 173.135 31.0697C171.887 32.9668 171.896 35.6397 171.896 37.815C171.885 40.1904 172.168 42.558 172.739 44.8639C173.404 47.4667 174.41 49.9701 175.732 52.309C175.743 52.3254 175.76 52.3375 175.779 52.3429C175.798 52.3484 175.818 52.347 175.836 52.3389C175.854 52.3309 175.869 52.3167 175.878 52.2989C175.886 52.2811 175.889 52.2608 175.884 52.2415C174.269 48.3503 173.367 44.2007 173.219 39.9904C173.118 37.9205 173.211 35.8456 173.498 33.7931C173.734 32.1068 175.058 29.4003 177.224 30.5301C179.256 31.584 179.434 34.4339 180.597 36.1877C180.597 36.1877 180.69 36.1877 180.656 36.1371C179.535 34.3159 179.484 32.0141 177.815 30.4879Z" fill="#C7C7C7"/>
<path d="M198.219 32.3176C195.626 34.6757 193.895 37.8337 193.304 41.2888C192.938 43.1973 192.768 45.1383 192.798 47.0814C192.719 49.0895 192.841 51.1005 193.16 53.0847C193.166 53.1015 193.176 53.1162 193.191 53.1266C193.205 53.1371 193.223 53.1427 193.24 53.1427C193.258 53.1427 193.275 53.1371 193.29 53.1266C193.304 53.1162 193.315 53.1015 193.32 53.0847C193.548 51.2129 193.32 49.2904 193.548 47.4186C193.71 45.526 194.017 43.6487 194.467 41.8032C194.886 40.1832 195.424 38.5965 196.078 37.0561C196.738 35.4933 197.56 34.0041 198.531 32.6127C198.666 32.4188 198.413 32.1489 198.219 32.3176Z" fill="#C7C7C7"/>
<path d="M188.076 43.7509C187.911 40.7376 187.533 37.7397 186.946 34.7796C186.936 34.7192 186.902 34.6653 186.853 34.6298C186.803 34.5942 186.741 34.5798 186.681 34.5899C186.62 34.6 186.566 34.6336 186.531 34.6834C186.495 34.7332 186.481 34.7951 186.491 34.8555C186.794 37.8234 186.921 40.8167 187.039 43.793C187.157 46.7694 187.089 49.6952 187.401 52.6547C187.407 52.6715 187.418 52.6862 187.432 52.6966C187.446 52.707 187.464 52.7126 187.482 52.7126C187.499 52.7126 187.517 52.707 187.531 52.6966C187.545 52.6862 187.556 52.6715 187.562 52.6547C188.12 49.7218 188.293 46.7285 188.076 43.7509Z" fill="#C7C7C7"/>
<path d="M144.56 70.5466C145.184 68.5652 167.182 52.4523 198.868 63.4809C199.813 63.8097 201.769 50.5721 200.234 49.2146C198.7 47.8571 156.044 38.2535 139.72 59.6108C138.616 61.061 144.56 70.5466 144.56 70.5466Z" fill="#E5602D"/>
<path d="M136.668 111.946C136.668 109.939 126.55 117.536 126.415 118.885C126.281 120.234 131.356 141.752 148.557 144.492C150.817 144.846 157.048 132.055 157.326 129.787C157.604 127.519 155.639 123.388 155.639 123.388C155.639 123.388 150.252 134.349 148.548 134.45C146.845 134.551 136.415 124.239 136.668 111.946Z" fill="#E5602D"/>
<path d="M29.0807 193.522C18.8616 180.706 34.3842 168.977 45.826 169.458C72.6722 170.596 118.962 180.132 139.864 192.527C146.609 196.515 145.007 240.545 136.694 239.702C121.93 238.209 49.8141 219.533 29.0807 193.522Z" fill="#C95F50"/>
<path d="M122.276 192.021C125.648 191.127 145.597 181.372 152.149 180.655C158.7 179.938 181.499 185.849 186.482 188.547C191.465 191.245 205.032 207.097 206.153 212.038C206.996 216.001 199.138 218.952 190.133 211.903C181.702 205.318 180.015 203.328 177.14 202.055C174.265 200.781 162.562 201.962 160.774 206.186C159.72 208.716 162.461 215.908 166.913 217.83C171.364 219.753 176.415 217.392 182.933 218.336C189.45 219.28 194.543 224.12 193.7 226.447C192.3 230.301 189.408 228.85 180.209 231.017C174.307 232.417 166.66 236.161 155.758 239.289C144.189 242.619 126.921 237.712 126.921 237.712L122.276 192.021Z" fill="#C95F50"/>
<path d="M197.545 226.928C197.545 226.928 197.41 221.742 194.745 219.449C192.499 217.377 189.538 216.253 186.482 216.313C183.253 216.237 178.481 216.852 177.756 215.984C178.582 217.01 179.263 218.144 179.779 219.356C180.415 220.98 181.205 222.539 182.14 224.011C185.395 228.361 189.729 229.145 191.727 228.842C193.725 228.538 196.895 226.818 197.545 226.928Z" fill="#455A64"/>
<path d="M154.122 179.449C162.157 178.944 178.573 180.672 188.438 187.038C195.108 191.346 200.091 219.28 195.715 221.557C191.339 223.834 188.759 220.318 185.597 214.651C184.433 212.586 180.715 199.905 177.359 199.736C172.536 199.483 159.906 203.901 159.906 203.901L154.122 179.449Z" fill="#C95F50"/>
<path d="M196.836 219.972C199.197 214.348 197.368 207.114 195.091 200.25C195.091 200.141 194.889 200.183 194.922 200.292C195.496 202.046 197.941 214.162 196.727 219.963C196.71 219.972 196.819 219.972 196.836 219.972Z" fill="#263238"/>
<path d="M154.122 179.449C162.157 178.944 178.573 180.672 188.438 187.038C195.108 191.346 194.147 217.029 189.771 219.297C185.395 221.565 181.39 216.768 179.256 209.727C178.565 207.459 178.413 198.294 175.041 198.117C170.218 197.864 158.321 197.341 158.321 197.341L154.122 179.449Z" fill="#C95F50"/>
<path d="M181.567 215.216C180.159 212.881 179.712 209.534 179.417 206.861C179.164 204.525 179.122 201.878 177.882 199.803C177.37 198.869 176.568 198.126 175.597 197.687C174.531 197.354 173.416 197.209 172.3 197.257C171.027 197.215 169.771 197.257 168.481 197.257C167.191 197.257 166.794 197.333 165.479 197.4C164.948 197.4 165.024 197.788 165.606 197.771C167.723 197.721 169.84 197.871 171.929 198.218C173.047 198.278 174.15 198.505 175.201 198.893C175.702 199.152 176.147 199.51 176.507 199.944C176.868 200.379 177.138 200.882 177.3 201.422C178.084 203.648 178.051 206.119 178.632 208.404C179.214 210.689 179.914 213.522 181.44 215.334C181.491 215.427 181.626 215.309 181.567 215.216Z" fill="#263238"/>
<path d="M193.126 215.453C194.147 212.788 194.256 209.668 194.231 206.844C194.182 203.853 193.9 200.87 193.388 197.923C193.135 196.405 192.84 194.896 192.502 193.395C192.308 191.923 191.857 190.496 191.17 189.18C188.953 185.807 184.172 184.551 182.486 183.868C182.385 183.868 182.3 183.977 182.401 184.019C183.776 184.601 188.304 186.422 189.72 188.454C190.539 189.753 191.073 191.21 191.288 192.729C191.55 194.036 191.811 195.343 192.047 196.65C192.983 201.987 193.59 207.746 192.553 213.108C191.98 216.085 190.504 219.011 187.334 219.744C187.224 219.744 187.258 219.93 187.334 219.93C190.007 220.048 192.241 217.771 193.126 215.453Z" fill="#263238"/>
<path d="M145.614 182.291C149.071 181.279 160.698 174.247 165.445 173.387C170.192 172.527 188.548 171.625 191.803 176.085C195.892 181.684 181.887 184.778 175.681 185.579C169.476 186.38 163.472 192.696 163.472 192.696L145.614 182.291Z" fill="#C95F50"/>
<path d="M185.319 183.556C183.246 183.732 181.183 184.013 179.138 184.399C177.17 184.635 175.222 185.021 173.312 185.554C171.449 186.169 166.685 189.551 166.019 190.25C162.95 193.471 156.955 200.722 150.302 206.878C147.758 209.174 144.947 211.156 141.93 212.78C141.171 213.184 140.774 213.724 141.93 213.235C153.051 208.598 164.653 193.26 166.921 191.102C168.998 189.262 171.351 187.76 173.894 186.65C177.638 185.402 181.6 184.964 185.361 183.741C185.546 183.766 185.471 183.539 185.319 183.556Z" fill="#263238"/>
<path d="M119.206 179.913L109.004 208.117L105.783 235.242C105.783 235.242 21.7874 207.476 25.6828 183.927C26.9897 175.984 35.4045 165.891 53.3048 166.6C71.2052 167.308 119.206 179.913 119.206 179.913Z" fill="#EBEBEB"/>
<path d="M119.392 180.613C117.579 179.955 115.808 179.222 113.979 178.606C112.149 177.991 110.404 177.417 108.599 176.861C104.982 175.748 101.289 174.778 97.6383 173.876C90.3531 172.101 82.9829 170.694 75.5559 169.66C72.8831 168.581 70.1006 167.755 67.3856 166.802C67.3013 166.802 67.276 166.895 67.3856 166.928C69.6032 167.772 71.8038 168.665 74.0382 169.458C72.3519 169.23 70.5981 169.003 68.8696 168.809C66.7786 168.573 64.6538 168.497 62.5881 168.303C62.5122 168.303 62.4953 168.429 62.5881 168.438C64.443 168.674 66.2895 169.036 68.1361 169.348C69.9826 169.66 71.9134 169.939 73.7937 170.259C77.5373 170.9 81.2641 171.591 84.9824 172.358C92.377 173.893 99.7631 175.579 107.048 177.611C109.08 178.176 111.129 178.699 113.169 179.298C115.21 179.896 117.326 180.377 119.383 180.984C119.552 181.051 119.611 180.697 119.392 180.613Z" fill="#263238"/>
<path d="M103.684 234.365C100.193 233.058 96.7445 231.616 93.2707 230.275C89.7969 228.935 86.264 227.527 82.8071 226.059C75.8594 223.1 69.0298 219.879 62.1833 216.709C58.212 214.871 54.1648 213.193 50.202 211.355C50.1008 211.355 50.008 211.464 50.1177 211.515C51.8546 212.358 53.5746 213.328 55.2947 214.247C57.0147 215.166 58.7179 215.984 60.4127 216.877C63.7853 218.665 67.2844 220.343 70.7414 222.029C77.5237 225.351 84.4721 228.323 91.5591 230.933C95.522 232.383 99.5523 233.555 103.616 234.677C103.793 234.685 103.844 234.424 103.684 234.365Z" fill="#263238"/>
<path d="M121.12 179.896C121.019 179.593 105.943 175.554 105.943 175.554C105.943 175.554 90.4967 200.63 90.3112 203.766C90.1258 206.903 88.2118 230.747 88.4226 231.009C88.6334 231.27 106.576 237.923 106.972 237.408C107.368 236.894 110.345 211.313 110.513 209.348C110.682 207.383 121.12 179.896 121.12 179.896Z" fill="#E5602D"/>
<path d="M236.06 268.108C235.748 268.319 230.099 271.953 226.828 273.167C222.064 274.929 201.609 276 195.69 276C189.771 276 169.307 274.929 164.543 273.167C161.272 271.944 155.623 268.31 155.268 268.108C155.724 268.201 170.445 271.228 195.647 271.228C220.85 271.228 235.605 268.201 236.06 268.108Z" fill="#C7C7C7"/>
<path d="M195.69 273.04C231.877 273.04 261.212 266.68 261.212 258.833C261.212 250.987 231.877 244.626 195.69 244.626C159.503 244.626 130.167 250.987 130.167 258.833C130.167 266.68 159.503 273.04 195.69 273.04Z" fill="#DBDBDB"/>
<path d="M195.69 265.241C219.62 265.241 239.02 261.704 239.02 257.341C239.02 252.978 219.62 249.44 195.69 249.44C171.759 249.44 152.359 252.978 152.359 257.341C152.359 261.704 171.759 265.241 195.69 265.241Z" fill="#C7C7C7"/>
<path d="M195.69 263.504C213.716 263.504 228.328 260.99 228.328 257.889C228.328 254.788 213.716 252.273 195.69 252.273C177.664 252.273 163.051 254.788 163.051 257.889C163.051 260.99 177.664 263.504 195.69 263.504Z" fill="#CA3D70"/>
<path opacity="0.1" d="M195.69 263.504C213.716 263.504 228.328 260.99 228.328 257.889C228.328 254.788 213.716 252.273 195.69 252.273C177.664 252.273 163.051 254.788 163.051 257.889C163.051 260.99 177.664 263.504 195.69 263.504Z" fill="#CA3D70"/>
<path d="M218.253 256.531C209.821 259.322 199.897 259.735 195.69 259.735C191.482 259.735 181.525 259.322 173.118 256.531L174.526 242.4H216.845L218.253 256.531Z" fill="#FCE07E"/>
<path d="M195.69 245.646C207.378 245.646 216.853 244.193 216.853 242.4C216.853 240.607 207.378 239.154 195.69 239.154C184.001 239.154 174.526 240.607 174.526 242.4C174.526 244.193 184.001 245.646 195.69 245.646Z" fill="#E1447C"/>
<path opacity="0.1" d="M216.794 242.619H216.853C216.853 242.619 215.909 245.149 214.644 245.233C213.868 245.309 213.042 244.693 212.494 245.773C211.946 246.852 214.02 251.068 212.039 251.068C210.057 251.068 211.305 247.535 211.001 246.784C210.874 246.396 210.609 246.067 210.257 245.86C209.905 245.652 209.489 245.579 209.087 245.655C208.286 245.865 207.173 247.813 205.934 247.198C204.695 246.582 203.573 246.784 203.194 247.51C202.814 248.235 204.037 250.224 202.452 250.267C200.867 250.309 203.076 246.894 200.993 246.397C199.627 246.076 198.936 247.24 197.477 247.299C196.018 247.358 195.462 246.456 194.104 246.548C192.747 246.641 192.502 248.513 190.959 248.513C189.762 248.513 189.273 246.548 188.523 246.607C187.772 246.666 187.233 247.45 185.875 247.273C184.518 247.096 184.425 245.967 183.194 245.655C182.283 245.418 181.187 245.579 180.892 246.211C180.268 247.577 181.55 251.068 179.948 251.068C178.346 251.068 178.961 248.538 179.003 247.223C179.046 245.908 178.573 244.424 177.317 244.01L177.081 243.943C176.499 243.833 176.078 245.115 175.125 244.634C174.695 244.415 174.535 242.619 174.535 242.619H174.585C174.553 242.55 174.536 242.476 174.535 242.4C174.535 240.604 184.003 239.154 195.698 239.154C207.393 239.154 216.861 240.604 216.861 242.4C216.854 242.477 216.831 242.551 216.794 242.619Z" fill="black"/>
<path d="M175.26 242.231C178.624 242.892 182.021 243.373 185.437 243.673L187.966 243.884L190.496 244.053C192.182 244.112 193.919 244.179 195.631 244.154C197.342 244.128 199.045 244.112 200.757 244.069C202.469 244.027 204.172 243.867 205.875 243.69C206.718 243.597 207.561 243.547 208.404 243.429L210.934 243.074C212.62 242.881 214.307 242.484 215.993 242.231C215.15 242.459 214.307 242.678 213.463 242.889C212.62 243.1 211.777 243.327 210.934 243.479L208.404 243.96C207.561 244.112 206.718 244.204 205.875 244.331C202.456 244.78 199.011 245.003 195.563 244.997C192.112 244.983 188.666 244.758 185.243 244.322C183.556 244.086 181.828 243.816 180.142 243.479C178.455 243.142 176.887 242.737 175.26 242.231Z" fill="#F17EA7"/>
<path d="M202.553 229.862C202.553 229.862 200.622 231.304 200.496 232.307C200.386 233.15 199.163 232.417 199.189 231.371C199.2 231.114 199.279 230.864 199.416 230.646C200.336 230.498 201.185 230.065 201.845 229.407C201.914 229.41 201.982 229.424 202.047 229.449C202.156 229.477 202.258 229.529 202.345 229.6C202.432 229.672 202.503 229.761 202.553 229.862Z" fill="#455A64"/>
<path d="M202.553 229.862C202.553 229.862 200.622 231.304 200.496 232.307C200.386 233.15 199.163 232.417 199.189 231.371C199.401 231.396 199.615 231.372 199.817 231.302C200.018 231.232 200.201 231.117 200.352 230.967C200.883 230.562 202.039 230.225 202.039 229.449C202.149 229.476 202.253 229.527 202.341 229.599C202.43 229.67 202.502 229.76 202.553 229.862Z" fill="#37474F"/>
<path d="M199.037 231.844C198.786 231.574 198.584 231.263 198.438 230.925L198.396 230.84C198.075 230.223 197.941 229.526 198.008 228.833C198.211 228.26 199.695 227.653 200.023 227.661C200.352 227.67 199.872 228.454 199.602 229.348C199.332 230.242 199.206 230.916 199.602 231.363C200.386 232.341 202.426 231.903 202.975 232.063C203.434 232.178 203.861 232.398 204.222 232.704C204.242 232.732 204.256 232.763 204.265 232.796C204.273 232.973 202.039 234.769 199.037 231.844Z" fill="#455A64"/>
<path d="M199.037 231.844C198.786 231.574 198.584 231.263 198.438 230.924C198.874 231.359 199.378 231.718 199.931 231.987C200.785 232.444 201.757 232.635 202.722 232.535C203.22 232.441 203.735 232.491 204.206 232.678C204.225 232.706 204.239 232.738 204.248 232.771C204.273 232.973 202.039 234.769 199.037 231.844Z" fill="#37474F"/>
<path d="M204.416 234.693C204.159 234.888 203.865 235.026 203.551 235.098C203.237 235.171 202.911 235.177 202.595 235.115C201.987 234.975 201.414 234.708 200.916 234.332C200.418 233.956 200.004 233.478 199.703 232.931C199.366 232.316 197.494 231.026 196.693 230.039L196.651 229.989C196.488 229.808 196.377 229.587 196.33 229.348C196.246 228.395 197.241 227.088 197.561 227.223C197.722 227.299 197.713 227.661 197.696 228.117C197.663 228.57 197.706 229.026 197.823 229.466C198.362 230.613 199.172 231.611 200.184 232.375C201.921 233.85 204.4 234.432 204.459 234.592C204.467 234.618 204.459 234.651 204.416 234.693Z" fill="#455A64"/>
<path d="M204.416 234.693C204.159 234.888 203.864 235.026 203.551 235.098C203.237 235.171 202.911 235.177 202.595 235.115C201.986 234.975 201.414 234.708 200.916 234.332C200.418 233.956 200.004 233.478 199.703 232.931C199.366 232.316 197.494 231.026 196.693 230.039C197.89 231.127 199.341 231.894 200.546 232.973C201.095 233.575 201.753 234.068 202.486 234.424C203.097 234.671 203.76 234.764 204.416 234.693Z" fill="#37474F"/>
<path d="M197.25 241.675C195.224 242.05 193.151 242.093 191.111 241.801C190.684 241.742 190.264 241.643 189.855 241.506C189.686 241.456 189.528 241.373 189.391 241.262C188.809 240.722 188.438 239.381 188.801 236.38C189.164 233.378 191.449 230.199 194.012 229.862C194.813 229.784 195.622 229.897 196.372 230.19C197.122 230.483 197.792 230.948 198.329 231.548L198.548 231.793C198.674 231.883 198.81 231.96 198.953 232.021C199.99 232.518 202.604 233.707 202.696 236.236C202.814 239.297 200.496 241.051 197.25 241.675Z" fill="#8A1302"/>
<path d="M196.575 231.919C196.516 231.835 196.356 231.877 196.28 231.919C196.204 231.962 196.052 232.037 196.052 232.156C196.05 232.186 196.057 232.217 196.072 232.244C196.087 232.271 196.109 232.293 196.137 232.307C196.164 232.325 196.196 232.335 196.229 232.335C196.262 232.335 196.294 232.325 196.322 232.307C196.421 232.249 196.505 232.168 196.567 232.071C196.574 232.032 196.574 231.992 196.567 231.953L196.575 231.919Z" fill="#E14483"/>
<path d="M194.847 230.537C194.816 230.499 194.778 230.47 194.734 230.451C194.69 230.431 194.642 230.423 194.594 230.427C194.492 230.427 194.383 230.503 194.383 230.621C194.387 230.646 194.396 230.669 194.409 230.69C194.422 230.711 194.44 230.729 194.46 230.743C194.481 230.757 194.504 230.767 194.528 230.772C194.552 230.777 194.578 230.778 194.602 230.773C194.654 230.771 194.705 230.758 194.752 230.735C194.798 230.711 194.839 230.678 194.872 230.638C194.88 230.631 194.886 230.621 194.889 230.611C194.892 230.601 194.892 230.59 194.89 230.58C194.887 230.569 194.882 230.56 194.874 230.552C194.866 230.545 194.857 230.539 194.847 230.537Z" fill="#E14483"/>
<path d="M194.374 231.995C194.378 231.982 194.378 231.967 194.374 231.953C194.284 231.92 194.186 231.92 194.096 231.953C194.02 231.995 193.936 232.071 193.953 232.164C193.956 232.188 193.965 232.211 193.978 232.232C193.992 232.252 194.01 232.269 194.031 232.281C194.052 232.293 194.076 232.3 194.1 232.302C194.125 232.304 194.149 232.3 194.172 232.29C194.271 232.257 194.359 232.195 194.425 232.113C194.43 232.091 194.428 232.067 194.419 232.046C194.41 232.025 194.394 232.007 194.374 231.995Z" fill="#E14483"/>
<path d="M194.374 234.238C194.374 234.238 194.374 234.188 194.374 234.171C194.374 234.154 194.155 234.171 194.079 234.171C194.003 234.171 193.852 234.365 193.885 234.483C193.919 234.601 194.088 234.618 194.189 234.55C194.293 234.485 194.369 234.382 194.4 234.263C194.393 234.254 194.384 234.245 194.374 234.238Z" fill="#E14483"/>
<path d="M191.954 232.333C191.935 232.325 191.914 232.325 191.895 232.333C191.837 232.334 191.779 232.348 191.727 232.374C191.674 232.401 191.628 232.438 191.592 232.484C191.524 232.569 191.465 232.704 191.592 232.796C191.718 232.889 191.777 232.796 191.836 232.746C191.918 232.624 191.959 232.479 191.954 232.333Z" fill="#E14483"/>
<path d="M192.182 234.618C192.171 234.61 192.158 234.606 192.144 234.606C192.131 234.606 192.117 234.61 192.106 234.618C192.064 234.613 192.021 234.618 191.98 234.631C191.94 234.644 191.902 234.665 191.87 234.693C191.833 234.72 191.803 234.756 191.782 234.797C191.762 234.838 191.751 234.884 191.752 234.93C191.753 234.951 191.759 234.972 191.77 234.991C191.781 235.009 191.796 235.025 191.814 235.036C191.832 235.048 191.853 235.055 191.875 235.057C191.896 235.059 191.918 235.056 191.937 235.048C192.019 235.011 192.089 234.952 192.14 234.879C192.165 234.795 192.249 234.677 192.182 234.618Z" fill="#E14483"/>
<path d="M192.857 237.063C192.855 237.046 192.847 237.031 192.834 237.02C192.822 237.01 192.806 237.004 192.789 237.004C192.786 236.994 192.78 236.985 192.773 236.978C192.766 236.97 192.757 236.965 192.747 236.962C192.545 236.962 192.309 237.274 192.427 237.451C192.545 237.628 192.646 237.451 192.722 237.451C192.77 237.399 192.806 237.337 192.83 237.271C192.853 237.204 192.862 237.133 192.857 237.063Z" fill="#E14483"/>
<path d="M195.175 236.666C195.181 236.65 195.181 236.632 195.175 236.616C195.074 236.523 194.948 236.616 194.863 236.675C194.779 236.734 194.669 236.877 194.737 236.995C194.779 237.035 194.835 237.057 194.893 237.057C194.951 237.057 195.007 237.035 195.049 236.995C195.096 236.956 195.133 236.905 195.155 236.847C195.177 236.79 195.184 236.727 195.175 236.666Z" fill="#E14483"/>
<path d="M189.948 235.056C189.948 235.014 189.948 234.963 189.897 234.955C189.834 234.944 189.769 234.957 189.714 234.991C189.66 235.025 189.62 235.079 189.602 235.14C189.56 235.25 189.467 235.419 189.602 235.511C189.737 235.604 189.83 235.511 189.889 235.393C189.948 235.292 189.969 235.172 189.948 235.056Z" fill="#E14483"/>
<path d="M190.664 237.779C190.669 237.76 190.669 237.74 190.664 237.72C190.605 237.619 190.471 237.653 190.403 237.72C190.36 237.768 190.327 237.824 190.307 237.885C190.287 237.946 190.279 238.011 190.285 238.075C190.291 238.1 190.303 238.124 190.321 238.142C190.339 238.161 190.362 238.175 190.387 238.182C190.412 238.189 190.439 238.189 190.464 238.182C190.489 238.175 190.512 238.161 190.53 238.142C190.62 238.043 190.668 237.913 190.664 237.779Z" fill="#E14483"/>
<path d="M196.575 234.061C196.398 234.061 196.128 234.247 196.238 234.424C196.268 234.462 196.312 234.488 196.36 234.496C196.409 234.504 196.458 234.493 196.499 234.466C196.54 234.433 196.574 234.393 196.6 234.348C196.637 234.299 196.671 234.248 196.702 234.196C196.709 234.178 196.711 234.158 196.708 234.139C196.704 234.12 196.696 234.102 196.682 234.087C196.669 234.073 196.652 234.063 196.633 234.058C196.613 234.054 196.594 234.055 196.575 234.061Z" fill="#E14483"/>
<path d="M198.641 233.277C198.641 233.218 198.531 233.193 198.497 233.277C198.428 233.314 198.37 233.37 198.329 233.437C198.287 233.513 198.261 233.631 198.329 233.69C198.396 233.749 198.691 233.412 198.641 233.277Z" fill="#E14483"/>
<path d="M201.069 234.491C201.074 234.37 201.032 234.252 200.951 234.162C200.951 234.12 200.85 234.162 200.816 234.162C200.807 234.158 200.797 234.155 200.786 234.155C200.776 234.155 200.766 234.158 200.757 234.162C200.727 234.203 200.708 234.25 200.701 234.3C200.693 234.35 200.698 234.401 200.715 234.449C200.715 234.542 200.808 234.651 200.909 234.66C201.01 234.668 201.069 234.592 201.069 234.491Z" fill="#E14483"/>
<path d="M202.275 236.784C202.275 236.675 202.224 236.515 202.089 236.515C202.076 236.515 202.064 236.52 202.054 236.527C202.043 236.535 202.035 236.545 202.03 236.557C201.981 236.611 201.944 236.675 201.924 236.745C201.903 236.816 201.899 236.89 201.912 236.962C201.912 237.071 202.047 237.181 202.165 237.096C202.24 237.01 202.279 236.899 202.275 236.784Z" fill="#E14483"/>
<path d="M199.652 235.756C199.646 235.745 199.636 235.737 199.625 235.731C199.614 235.725 199.602 235.722 199.589 235.722C199.577 235.722 199.564 235.725 199.553 235.731C199.542 235.737 199.533 235.745 199.526 235.756C199.426 235.827 199.35 235.927 199.307 236.043C199.292 236.067 199.283 236.093 199.279 236.121C199.276 236.149 199.278 236.177 199.286 236.204C199.294 236.231 199.307 236.256 199.325 236.278C199.343 236.299 199.366 236.317 199.391 236.329C199.652 236.439 199.728 235.908 199.652 235.756Z" fill="#E14483"/>
<path d="M197.384 236.034C197.277 236.074 197.183 236.144 197.115 236.236C197.076 236.281 197.049 236.334 197.036 236.391C197.023 236.449 197.024 236.508 197.039 236.565C197.098 236.7 197.258 236.666 197.342 236.565C197.415 236.451 197.462 236.321 197.477 236.186C197.497 236.174 197.512 236.154 197.517 236.131C197.523 236.108 197.519 236.084 197.507 236.064C197.494 236.043 197.475 236.029 197.452 236.024C197.429 236.018 197.404 236.022 197.384 236.034Z" fill="#E14483"/>
<path d="M200.496 237.577C200.493 237.56 200.486 237.543 200.475 237.53C200.463 237.516 200.448 237.506 200.432 237.501C200.415 237.495 200.397 237.495 200.38 237.5C200.363 237.504 200.347 237.513 200.335 237.526C200.235 237.567 200.149 237.638 200.091 237.729C200.055 237.768 200.035 237.819 200.035 237.872C200.035 237.925 200.055 237.977 200.091 238.015C200.352 238.201 200.496 237.729 200.496 237.577Z" fill="#E14483"/>
<path d="M200.546 239.685C200.509 239.66 200.465 239.647 200.42 239.647C200.375 239.647 200.331 239.66 200.293 239.685C200.25 239.713 200.214 239.752 200.188 239.797C200.163 239.843 200.15 239.894 200.15 239.946C200.15 240.081 200.31 240.115 200.42 240.064C200.526 240.002 200.609 239.908 200.656 239.795C200.657 239.78 200.655 239.765 200.65 239.751C200.645 239.737 200.637 239.725 200.627 239.714C200.616 239.704 200.604 239.696 200.59 239.691C200.576 239.686 200.561 239.684 200.546 239.685Z" fill="#E14483"/>
<path d="M198.211 240.528C198.211 240.444 198.059 240.444 197.983 240.461C197.907 240.478 197.772 240.553 197.755 240.663C197.738 240.773 197.89 240.84 198 240.832C198.059 240.826 198.116 240.806 198.166 240.774C198.216 240.742 198.257 240.698 198.287 240.646C198.292 240.633 198.294 240.62 198.293 240.606C198.292 240.592 198.288 240.579 198.28 240.567C198.273 240.555 198.262 240.546 198.25 240.539C198.238 240.532 198.225 240.528 198.211 240.528Z" fill="#E14483"/>
<path d="M198.464 238.521C198.468 238.508 198.468 238.493 198.464 238.479C198.464 238.479 198.464 238.395 198.413 238.403C198.304 238.409 198.201 238.451 198.118 238.521C198.05 238.58 197.966 238.682 198 238.783C198.034 238.884 198.489 238.724 198.464 238.521Z" fill="#E14483"/>
<path d="M196.044 238.876C195.926 238.871 195.81 238.913 195.723 238.994C195.647 239.061 195.546 239.187 195.647 239.28C195.749 239.373 196.179 239.154 196.204 238.968C196.229 238.783 196.103 238.825 196.044 238.876Z" fill="#E14483"/>
<path d="M195.884 240.865V240.815C195.841 240.785 195.793 240.764 195.742 240.754C195.691 240.744 195.639 240.744 195.588 240.756C195.487 240.756 195.378 240.874 195.386 240.983C195.395 241.093 195.555 241.118 195.656 241.093C195.757 241.068 195.884 240.983 195.884 240.865Z" fill="#E14483"/>
<path d="M193.75 239.069C193.739 239.062 193.726 239.058 193.712 239.058C193.699 239.058 193.686 239.062 193.675 239.069C193.668 239.066 193.661 239.064 193.653 239.064C193.646 239.064 193.639 239.066 193.632 239.069C193.579 239.073 193.526 239.088 193.478 239.113C193.431 239.137 193.388 239.171 193.354 239.213C193.317 239.253 193.297 239.306 193.297 239.36C193.297 239.415 193.317 239.468 193.354 239.508C193.506 239.634 193.809 239.255 193.75 239.069Z" fill="#E14483"/>
<path d="M193.354 241.051C193.354 241.051 193.354 241 193.354 240.992C193.354 240.891 193.202 240.882 193.126 240.899C193.051 240.916 192.907 241.009 192.916 241.118C192.924 241.228 193.051 241.279 193.152 241.262C193.253 241.245 193.363 241.161 193.354 241.051Z" fill="#E14483"/>
<path d="M191.398 241.093C191.398 241.093 191.212 241.093 191.136 241.093C191.061 241.093 190.943 241.177 191.002 241.279C191.061 241.38 191.153 241.354 191.229 241.338C191.305 241.321 191.423 241.295 191.448 241.203C191.456 241.193 191.461 241.181 191.463 241.169C191.464 241.156 191.462 241.144 191.457 241.132C191.452 241.121 191.443 241.111 191.433 241.104C191.423 241.097 191.41 241.093 191.398 241.093Z" fill="#E14483"/>
<path d="M191.533 239.542C191.436 239.557 191.347 239.604 191.28 239.677C191.263 239.692 191.25 239.711 191.241 239.732C191.232 239.753 191.227 239.776 191.227 239.799C191.227 239.822 191.232 239.844 191.241 239.865C191.25 239.886 191.263 239.905 191.28 239.921C191.364 239.997 191.457 239.921 191.516 239.87C191.575 239.82 191.592 239.643 191.533 239.542Z" fill="#E14483"/>
<path d="M189.4 239.365C189.392 239.356 189.382 239.348 189.371 239.343C189.36 239.339 189.348 239.336 189.336 239.336C189.325 239.336 189.313 239.339 189.302 239.343C189.291 239.348 189.281 239.356 189.273 239.365C189.273 239.365 189.206 239.365 189.197 239.365C189.15 239.456 189.121 239.557 189.113 239.66C189.113 239.744 189.18 239.837 189.273 239.82C189.366 239.803 189.535 239.508 189.4 239.365Z" fill="#E14483"/>
<g opacity="0.2">
<path d="M195.31 237.029C195.184 237.113 195.083 237.223 194.956 237.29C194.884 237.324 194.807 237.347 194.728 237.358C194.661 237.358 194.61 237.358 194.551 237.358V237.4C194.594 237.56 194.863 237.51 194.981 237.467C195.165 237.401 195.32 237.273 195.42 237.105C195.437 237.054 195.352 236.995 195.31 237.029Z" fill="white"/>
<path d="M197.671 236.548C197.668 236.541 197.662 236.535 197.656 236.531C197.649 236.527 197.641 236.525 197.633 236.525C197.625 236.525 197.618 236.527 197.611 236.531C197.604 236.535 197.599 236.541 197.595 236.548C197.494 236.633 197.469 236.776 197.385 236.877C197.338 236.936 197.277 236.982 197.208 237.011C197.138 237.041 197.063 237.053 196.988 237.046C196.977 237.05 196.968 237.058 196.961 237.068C196.955 237.077 196.951 237.089 196.951 237.101C196.951 237.112 196.955 237.124 196.961 237.134C196.968 237.144 196.977 237.151 196.988 237.155C197.072 237.196 197.165 237.21 197.257 237.196C197.349 237.183 197.434 237.142 197.503 237.08C197.587 236.953 197.739 236.717 197.671 236.548Z" fill="white"/>
<path d="M197.789 236.236H197.722C197.722 236.236 197.722 236.363 197.781 236.329C197.791 236.316 197.797 236.301 197.799 236.284C197.8 236.268 197.797 236.251 197.789 236.236Z" fill="white"/>
<path d="M193.911 239.432C193.809 239.491 193.725 239.575 193.616 239.626C193.5 239.658 193.381 239.678 193.261 239.685C193.244 239.685 193.226 239.692 193.214 239.705C193.201 239.717 193.194 239.735 193.194 239.752C193.194 239.77 193.201 239.787 193.214 239.8C193.226 239.813 193.244 239.82 193.261 239.82C193.412 239.88 193.579 239.885 193.734 239.834C193.888 239.783 194.019 239.68 194.105 239.542C194.079 239.457 193.987 239.365 193.911 239.432Z" fill="white"/>
<path d="M192.393 235.014C192.392 235.003 192.389 234.993 192.384 234.983C192.378 234.974 192.371 234.966 192.362 234.96C192.353 234.955 192.342 234.951 192.332 234.95C192.321 234.949 192.31 234.951 192.3 234.955C192.216 235.005 192.165 235.098 192.089 235.157C192.049 235.201 191.999 235.233 191.943 235.251C191.886 235.268 191.827 235.271 191.769 235.258C191.757 235.248 191.741 235.244 191.725 235.245C191.709 235.247 191.695 235.254 191.685 235.267C191.675 235.279 191.67 235.295 191.671 235.311C191.673 235.327 191.681 235.341 191.693 235.351C191.853 235.629 192.427 235.275 192.393 235.014Z" fill="white"/>
<path d="M190.799 238.134C190.639 238.235 190.487 238.446 190.268 238.336C190.209 238.336 190.15 238.395 190.209 238.437C190.327 238.502 190.466 238.52 190.596 238.485C190.727 238.451 190.839 238.367 190.909 238.252C190.918 238.236 190.922 238.218 190.92 238.2C190.918 238.182 190.91 238.165 190.898 238.152C190.885 238.139 190.869 238.13 190.852 238.127C190.834 238.123 190.816 238.126 190.799 238.134Z" fill="white"/>
<path d="M192.705 237.737C192.672 237.729 192.637 237.729 192.604 237.737C192.604 237.737 192.536 237.737 192.503 237.737C192.496 237.741 192.49 237.746 192.485 237.753C192.481 237.76 192.479 237.767 192.479 237.775C192.479 237.783 192.481 237.791 192.485 237.798C192.49 237.804 192.496 237.81 192.503 237.813C192.521 237.834 192.545 237.85 192.572 237.859C192.598 237.868 192.627 237.869 192.654 237.864C192.682 237.867 192.71 237.86 192.733 237.845C192.756 237.829 192.773 237.806 192.781 237.779C192.781 237.771 192.778 237.762 192.774 237.755C192.769 237.747 192.763 237.741 192.755 237.737C192.747 237.733 192.739 237.73 192.73 237.73C192.721 237.731 192.713 237.733 192.705 237.737Z" fill="white"/>
<path d="M193.076 237.56C193.077 237.546 193.073 237.532 193.066 237.52C193.058 237.507 193.047 237.498 193.034 237.493C192.975 237.493 192.933 237.552 192.966 237.602C193 237.653 193.084 237.602 193.084 237.602L193.076 237.56Z" fill="white"/>
<path d="M194.644 234.44C194.543 234.508 194.501 234.634 194.433 234.727C194.385 234.793 194.319 234.842 194.242 234.869C194.165 234.896 194.082 234.9 194.003 234.879C193.961 234.879 193.928 234.921 194.003 234.946C194.075 234.975 194.151 234.986 194.228 234.978C194.304 234.971 194.377 234.946 194.442 234.904C194.601 234.818 194.724 234.677 194.788 234.508C194.762 234.449 194.686 234.398 194.644 234.44Z" fill="white"/>
<path d="M196.769 234.474C196.685 234.533 196.634 234.634 196.55 234.693C196.499 234.73 196.439 234.749 196.377 234.749C196.315 234.749 196.254 234.73 196.204 234.693C196.162 234.693 196.12 234.736 196.153 234.769C196.208 234.807 196.273 234.827 196.339 234.827C196.405 234.827 196.47 234.807 196.524 234.769C196.659 234.706 196.764 234.595 196.82 234.457C196.82 234.457 196.794 234.449 196.769 234.474Z" fill="white"/>
<path d="M198.725 233.774H198.658C198.59 233.817 198.548 233.876 198.472 233.901C198.398 233.922 198.319 233.922 198.244 233.901C198.244 233.901 198.185 233.943 198.244 233.96C198.288 233.995 198.339 234.017 198.394 234.026C198.448 234.035 198.505 234.03 198.556 234.01C198.616 233.968 198.734 233.884 198.725 233.774Z" fill="white"/>
<path d="M198.81 233.462C198.759 233.462 198.742 233.53 198.81 233.538C198.869 233.547 198.877 233.462 198.81 233.462Z" fill="white"/>
<path d="M196.524 232.4C196.42 232.46 196.296 232.478 196.179 232.451C196.172 232.455 196.166 232.461 196.162 232.469C196.158 232.476 196.156 232.484 196.156 232.493C196.156 232.501 196.158 232.509 196.162 232.517C196.166 232.524 196.172 232.53 196.179 232.535C196.25 232.582 196.335 232.603 196.42 232.594C196.505 232.585 196.583 232.546 196.642 232.484C196.659 232.434 196.583 232.366 196.524 232.4Z" fill="white"/>
<path d="M196.87 232.341C196.87 232.328 196.865 232.316 196.858 232.305C196.85 232.295 196.84 232.287 196.828 232.282C196.778 232.282 196.735 232.341 196.769 232.383C196.775 232.394 196.783 232.403 196.794 232.409C196.804 232.415 196.816 232.418 196.828 232.418C196.84 232.418 196.852 232.415 196.862 232.409C196.873 232.403 196.881 232.394 196.887 232.383L196.87 232.341Z" fill="white"/>
<path d="M199.72 236.354C199.674 236.427 199.61 236.487 199.535 236.53C199.46 236.572 199.376 236.596 199.29 236.599C199.281 236.603 199.273 236.609 199.268 236.618C199.263 236.626 199.26 236.636 199.26 236.645C199.26 236.655 199.263 236.665 199.268 236.673C199.273 236.681 199.281 236.688 199.29 236.692C199.343 236.708 199.4 236.713 199.455 236.705C199.51 236.697 199.563 236.677 199.61 236.647C199.657 236.616 199.696 236.575 199.725 236.528C199.754 236.48 199.773 236.427 199.779 236.371C199.779 236.371 199.737 236.329 199.72 236.354Z" fill="white"/>
<path d="M199.855 236.051C199.844 236.051 199.833 236.055 199.825 236.063C199.817 236.071 199.813 236.082 199.813 236.093C199.813 236.104 199.817 236.115 199.825 236.123C199.833 236.131 199.844 236.135 199.855 236.135C199.889 236.144 199.905 236.059 199.855 236.051Z" fill="white"/>
<path d="M198.481 238.859C198.406 238.94 198.311 238.998 198.205 239.028C198.1 239.058 197.988 239.058 197.882 239.027C197.831 239.027 197.789 239.086 197.882 239.112C198.005 239.176 198.148 239.191 198.282 239.155C198.416 239.119 198.532 239.035 198.607 238.918C198.607 238.859 198.523 238.817 198.481 238.859Z" fill="white"/>
<path d="M200.336 238.1C200.251 238.159 200.159 238.26 200.049 238.218C199.939 238.176 199.965 238.26 200.049 238.285C200.118 238.313 200.194 238.318 200.266 238.298C200.337 238.278 200.401 238.235 200.445 238.176C200.496 238.134 200.386 238.075 200.336 238.1Z" fill="white"/>
<path d="M196.027 239.365C195.951 239.4 195.872 239.428 195.791 239.449C195.699 239.465 195.604 239.45 195.521 239.407C195.479 239.407 195.445 239.449 195.479 239.483C195.513 239.516 195.985 239.66 196.094 239.44C196.098 239.431 196.098 239.42 196.096 239.41C196.094 239.4 196.089 239.391 196.082 239.383C196.076 239.376 196.067 239.37 196.057 239.367C196.047 239.363 196.037 239.363 196.027 239.365Z" fill="white"/>
<path d="M191.499 240.039C191.444 240.085 191.376 240.111 191.305 240.115C191.233 240.109 191.164 240.086 191.103 240.048C191.103 240.048 191.044 240.048 191.061 240.098C191.092 240.134 191.131 240.163 191.175 240.182C191.219 240.202 191.266 240.212 191.314 240.212C191.362 240.212 191.409 240.202 191.452 240.182C191.496 240.163 191.535 240.134 191.567 240.098C191.6 240.073 191.55 240.005 191.499 240.039Z" fill="white"/>
<path d="M191.364 241.413L191.17 241.506C191.1 241.514 191.03 241.514 190.96 241.506C190.96 241.506 190.909 241.557 190.96 241.574C191.04 241.597 191.126 241.597 191.207 241.573C191.288 241.549 191.36 241.503 191.415 241.439C191.415 241.439 191.398 241.397 191.364 241.413Z" fill="white"/>
<path d="M200.901 234.946C200.85 234.946 200.816 234.946 200.766 234.946C200.715 234.946 200.715 234.946 200.766 234.997C200.784 235.018 200.808 235.035 200.834 235.045C200.861 235.055 200.889 235.059 200.917 235.056C200.917 235.056 200.943 234.955 200.901 234.946Z" fill="white"/>
</g>
</svg>
